# Blender 5.1.2
# www.blender.org
mtllib rock5.mtl.mtl
o defaultMaterial.007
v -0.085019 0.036157 0.069226
v -0.055262 0.178588 0.047365
v -0.028738 0.140792 0.081313
v -0.062549 0.151986 -0.059801
v -0.092127 -0.054468 -0.024588
v -0.067148 -0.045270 0.089528
v -0.091835 -0.059143 0.057760
v -0.092920 -0.059548 -0.006534
v -0.091692 -0.059661 -0.024555
v -0.063481 -0.058923 0.092712
v -0.029075 -0.059987 -0.076293
v -0.021913 0.119432 -0.090935
v 0.050225 -0.060043 -0.085215
v 0.015294 -0.058781 0.115118
v 0.032184 0.060059 0.111313
v 0.086095 0.030888 0.114225
v 0.083877 -0.058776 0.116091
v 0.157072 -0.059138 0.058509
v 0.081389 -0.060016 -0.080920
v 0.149817 -0.059689 -0.028944
v 0.150267 -0.053994 -0.031206
v 0.095430 0.027799 -0.081170
v 0.159142 -0.039366 0.056787
v 0.158298 0.082205 -0.031911
v 0.127655 0.094229 0.081232
v 0.161179 0.097610 -0.017851
v 0.109616 0.132704 -0.079972
v 0.124555 0.203384 -0.012670
v 0.122036 0.115592 0.077192
v 0.102539 0.218830 0.035766
v 0.052240 0.146802 0.092047
v 0.057686 0.137544 0.094178
v 0.070341 0.058959 0.111935
v 0.013968 0.134100 0.094521
v 0.086677 0.221949 0.041058
v 0.026115 0.267721 -0.005439
v 0.063234 0.268280 -0.033299
v 0.110996 0.236429 -0.004996
v 0.085850 0.259512 -0.032333
v -0.046282 0.223491 0.014701
v -0.044266 0.235901 -0.024391
v 0.003081 0.263920 -0.034436
v -0.052146 0.200969 -0.056386
v -0.003345 0.148264 -0.096479
v -0.019813 0.210288 -0.074161
v 0.012630 0.260149 -0.046942
v 0.095977 0.231233 -0.041976
v 0.036534 0.124665 -0.098142
v 0.097323 0.116816 -0.089042
v 0.028662 0.272114 -0.015929
vn -0.9783 0.2067 0.0152
vn -0.6140 0.2435 0.7508
vn -0.4304 0.1283 0.8935
vn -0.9897 0.1327 -0.0532
vn -0.9953 0.0955 -0.0168
vn -0.7856 -0.0182 0.6185
vn -0.9975 0.0694 0.0164
vn -0.0000 -1.0000 0.0063
vn -0.9942 -0.0836 -0.0672
vn -0.6339 -0.0387 -0.7724
vn -0.6356 -0.0376 -0.7711
vn -0.6304 -0.0412 -0.7752
vn -0.1143 -0.0775 -0.9904
vn -0.1115 -0.0764 -0.9908
vn -0.1123 -0.0767 -0.9907
vn -0.6361 -0.0582 -0.7694
vn -0.2851 0.0711 0.9559
vn -0.0340 0.0368 0.9987
vn -0.0142 0.0211 0.9997
vn -0.2708 0.1490 0.9510
vn 0.6197 0.0034 0.7848
vn 0.6183 0.0011 0.7859
vn 0.6191 0.0021 0.7853
vn 0.9905 -0.1108 -0.0815
vn 0.2542 -0.3743 -0.8918
vn 0.6022 -0.0985 -0.7922
vn 0.9941 -0.0591 -0.0904
vn 0.9900 -0.0784 -0.1169
vn 0.6198 0.0028 0.7847
vn 0.6195 0.0024 0.7850
vn 0.9332 0.1612 0.3212
vn 0.8103 0.3051 -0.5003
vn 0.9015 0.2967 0.3151
vn 0.3600 0.4052 0.8403
vn 0.3601 0.4052 0.8403
vn 0.3600 0.4052 0.8404
vn 0.3279 0.2582 0.9087
vn -0.0141 0.0734 0.9972
vn -0.0096 0.2189 0.9757
vn -0.1487 0.6010 0.7853
vn -0.2708 0.1491 0.9510
vn 0.3102 0.8477 0.4304
vn 0.3103 0.8477 0.4304
vn -0.4538 0.8558 0.2483
vn -0.5116 0.1674 -0.8428
vn -0.5030 0.6427 -0.5779
vn 0.1845 0.3758 -0.9082
vn 0.1845 0.3757 -0.9082
vn 0.8160 0.4256 -0.3912
vn 0.1931 -0.0543 -0.9797
vn 0.1361 -0.0901 -0.9866
vn -0.1151 -0.0778 -0.9903
vn -0.1111 -0.1182 -0.9868
vn 0.6569 -0.0803 -0.7497
vn -0.0620 0.9415 -0.3312
vn 0.6383 -0.0416 -0.7687
vn 0.1365 -0.0246 -0.9903
vn -0.3206 0.1077 0.9411
vn -0.6288 -0.0423 -0.7764
vn -0.7749 -0.0615 0.6290
vt 0.624767 0.590716
vt 0.624767 0.406174
vt 0.499817 0.423076
vt 0.544797 0.669204
vt 0.492553 0.814302
vt 0.542342 0.861185
vt 0.513543 0.648107
vt 0.514789 0.609896
vt 0.534191 0.619205
vt 0.551816 0.628841
vt 0.606473 0.628841
vt 0.086003 0.335923
vt 0.065607 0.337829
vt 0.008355 0.416868
vt 0.513898 0.616662
vt 0.158897 0.335924
vt 0.199139 0.370486
vt 0.090913 0.796173
vt 0.085590 0.645765
vt 0.000000 0.652522
vt 0.184111 0.650104
vt 0.000000 0.515774
vt 0.226278 0.468080
vt 0.000784 0.645765
vt 0.406370 0.645715
vt 0.397417 0.720396
vt 0.329210 0.694467
vt 0.326791 0.660683
vt 0.505834 0.631004
vt 0.228899 0.553437
vt 0.065982 0.638571
vt 0.165260 0.645765
vt 0.551816 0.967495
vt 0.559049 1.000000
vt 0.633212 0.988367
vt 0.005558 0.554478
vt 0.726324 0.958474
vt 0.726710 0.950656
vt 0.628037 0.963371
vt 0.297260 0.660725
vt 0.237653 0.684542
vt 0.297884 0.668040
vt 0.221605 0.652407
vt 0.701843 0.861196
vt 0.681447 0.847104
vt 0.570562 0.881651
vt 0.726710 0.776888
vt 0.630411 0.713366
vt 0.566022 0.853089
vt 0.568906 0.708378
vt 0.371164 0.948954
vt 0.395947 0.838481
vt 0.315802 0.815644
vt 0.387314 0.827537
vt 0.352928 0.727298
vt 0.304238 0.788971
vt 0.437106 0.813463
vt 0.387992 0.948807
vt 0.483180 1.000000
vt 0.551816 0.924832
vt 0.892060 0.311995
vt 0.921897 0.232803
vt 0.853326 0.271814
vt 0.847877 0.244672
vt 0.912036 0.214652
vt 0.868391 0.210600
vt 0.595821 0.343926
vt 0.554054 0.321976
vt 0.512097 0.361338
vt 0.864317 0.346102
vt 0.880542 0.404584
vt 0.921897 0.400619
vt 0.044427 0.903161
vt 0.086345 0.916170
vt 0.113089 0.834643
vt 0.034654 0.838266
vt 0.047333 0.951493
vt 0.119342 0.985237
vt 0.105502 0.990416
vt 0.222082 0.953073
vt 0.646854 0.665738
vt 0.607601 0.673431
vt 0.624268 0.632765
vt 0.178780 1.000000
vt 0.206763 0.990042
vt 0.163365 0.806219
vt 0.249628 0.822595
vt 0.236780 0.800436
vt 0.304238 0.762983
vt 0.880723 0.310510
vt 0.847734 0.337124
s 1
usemtl Material.001
f 1/1/1 2/2/1 4/3/1
f 1/4/2 3/5/2 2/6/2
f 1/4/3 6/7/3 3/5/3
f 4/3/4 5/8/4 1/1/4
f 8/9/5 1/1/5 5/8/5
f 6/7/6 1/4/6 7/10/6
f 7/11/7 1/1/7 8/9/7
f 8/12/8 9/13/8 11/14/8
f 9/15/9 8/9/9 5/8/9
f 7/16/8 8/12/8 10/17/8
f 10/17/8 8/12/8 11/14/8
f 12/18/10 11/19/11 5/20/12
f 13/21/13 11/19/14 12/18/15
f 11/14/8 13/22/8 14/23/8
f 11/19/16 9/24/16 5/20/16
f 10/17/8 11/14/8 14/23/8
f 14/25/17 15/26/17 6/7/17
f 14/25/18 16/27/18 15/26/18
f 17/28/19 16/27/19 14/25/19
f 6/7/20 10/29/20 14/25/20
f 17/30/8 14/23/8 13/22/8
f 20/31/8 18/32/8 17/30/8
f 16/33/21 17/34/22 18/35/23
f 13/22/8 19/36/8 17/30/8
f 19/36/8 20/31/8 17/30/8
f 20/37/24 21/38/24 23/39/24
f 20/40/25 22/41/25 21/42/25
f 20/40/26 19/43/26 22/41/26
f 23/39/24 18/35/24 20/37/24
f 21/38/27 24/44/27 23/39/27
f 24/44/28 26/45/28 23/39/28
f 23/39/29 25/46/30 16/33/21
f 25/46/31 23/39/31 26/45/31
f 18/35/23 23/39/29 16/33/21
f 24/44/32 27/47/32 26/45/32
f 26/45/32 27/47/32 28/48/32
f 26/45/33 28/48/33 29/49/33
f 29/49/33 25/46/33 26/45/33
f 30/50/33 29/49/33 28/48/33
f 30/51/34 31/52/35 29/53/35
f 31/52/35 32/54/36 29/53/35
f 29/53/37 32/54/37 33/55/37
f 25/56/37 29/53/37 33/55/37
f 16/27/38 33/55/38 15/26/38
f 15/26/39 33/55/39 32/54/39
f 33/55/37 16/27/37 25/56/37
f 34/57/39 15/26/39 32/54/39
f 31/52/39 34/57/39 32/54/39
f 34/57/40 31/52/40 2/6/40
f 2/6/40 3/5/40 34/57/40
f 15/26/41 34/57/41 3/5/41
f 35/58/34 31/52/35 30/51/34
f 31/52/40 35/58/40 2/6/40
f 35/58/40 36/59/40 40/60/40
f 36/61/42 35/62/42 37/63/42
f 39/64/43 37/63/42 35/62/42
f 35/62/42 30/65/42 38/66/42
f 38/66/42 39/64/43 35/62/42
f 40/60/40 2/6/40 35/58/40
f 40/67/1 41/68/1 43/69/1
f 42/70/44 41/71/44 40/72/44
f 40/72/44 36/61/44 42/70/44
f 2/2/1 40/67/1 43/69/1
f 43/73/45 45/74/45 44/75/45
f 44/75/45 4/76/45 43/73/45
f 43/69/1 4/3/1 2/2/1
f 45/74/46 43/73/46 41/77/46
f 46/78/46 45/74/46 42/79/46
f 42/79/46 45/74/46 41/77/46
f 45/74/47 46/78/48 47/80/47
f 44/75/47 45/74/47 47/80/47
f 27/47/32 47/81/32 28/48/32
f 47/81/49 38/82/49 28/48/49
f 47/81/49 39/83/49 38/82/49
f 46/78/48 37/84/48 47/80/47
f 37/84/48 39/85/48 47/80/47
f 48/86/47 44/75/47 47/80/47
f 47/80/47 27/87/47 48/86/47
f 13/21/50 48/86/50 22/41/50
f 48/86/51 49/88/51 22/41/51
f 27/87/47 49/88/48 48/86/47
f 48/86/52 13/21/13 12/18/15
f 44/75/53 48/86/53 12/18/53
f 49/88/54 24/89/54 22/41/54
f 27/87/54 24/89/54 49/88/54
f 50/90/55 37/63/55 46/91/55
f 50/90/55 46/91/55 42/70/55
f 36/61/44 50/90/44 42/70/44
f 37/63/42 50/90/42 36/61/42
f 44/75/45 12/18/45 4/76/45
f 28/48/33 38/82/33 30/50/33
f 24/89/56 21/42/56 22/41/56
f 19/43/57 13/21/57 22/41/57
f 6/7/58 15/26/58 3/5/58
f 5/20/12 4/76/59 12/18/10
f 6/7/60 7/10/60 10/29/60
