# Blender 5.1.2
# www.blender.org
mtllib rock2.mtl
o defaultMaterial.002
v 0.705748 0.100818 -0.476607
v 0.742650 0.116082 -0.426214
v 0.683914 -0.167887 -0.366581
v 0.658815 -0.179845 -0.394590
v 0.705371 -0.156418 -0.517368
v 0.680275 -0.204673 -0.496929
v 0.745612 -0.133325 -0.510019
v 0.711267 -0.132345 -0.505818
v 0.739809 -0.166367 -0.526120
v 0.766830 -0.204295 -0.525356
v 0.859145 0.113984 -0.436334
v 0.707724 -0.206721 -0.308960
v 0.781536 -0.206888 -0.288770
v 0.910123 -0.205084 -0.443789
v 0.922123 -0.161767 -0.385414
v 0.929827 -0.205859 -0.372015
v 0.911188 -0.141951 -0.418752
v 0.911652 -0.142246 -0.417154
v 0.869055 -0.206725 -0.297514
v 0.887321 -0.155302 -0.346348
v 0.819640 -0.131263 -0.361690
v 0.868976 -0.137849 -0.360512
v 0.856306 0.115425 -0.411605
v 0.849695 0.119456 -0.417673
v 0.799558 0.121373 -0.409907
v 0.757730 -0.195000 -0.297306
v 0.710156 -0.200543 -0.309353
v 0.648279 -0.205837 -0.393370
vn 0.7551 0.2168 -0.6187
vn -0.8134 0.2758 0.5121
vn -0.7708 0.2940 0.5652
vn -0.9693 0.0959 -0.2265
vn 0.7935 0.0941 -0.6012
vn -0.7424 0.1059 -0.6615
vn -0.1171 0.1207 -0.9858
vn -0.0958 0.4496 -0.8881
vn -0.3024 -0.2341 -0.9240
vn 0.4703 0.3185 -0.8230
vn 0.1042 0.2397 -0.9652
vn 0.4927 0.0989 -0.8646
vn 0.0008 -0.9999 -0.0110
vn 0.0007 -0.9999 -0.0110
vn 0.9608 0.0880 -0.2628
vn 0.8933 0.1526 -0.4228
vn 0.9609 0.0880 -0.2627
vn 0.7346 0.3115 0.6028
vn 0.0723 0.6732 0.7359
vn 0.5099 0.7976 0.3223
vn 0.7945 0.1580 0.5863
vn 0.0030 0.1979 0.9802
vn -0.5711 0.2435 0.7839
vn 0.5145 0.8575 0.0091
vn 0.9737 0.2049 0.0998
vn 0.9488 0.2089 -0.2370
vn 0.1574 0.1972 0.9676
vn -0.0075 0.9585 -0.2849
vn -0.2855 0.1577 0.9453
vn 0.2348 0.3121 -0.9206
vn -0.3283 0.4050 -0.8534
vn 0.4712 0.3571 0.8065
vn -0.2600 0.1628 0.9518
vn -0.2600 0.1629 0.9518
vn -0.2345 0.7941 0.5607
vn -0.5997 0.2814 0.7491
vn -0.7681 0.3370 0.5445
vn 0.7345 0.3115 0.6028
vn -0.7681 0.3369 0.5445
vn -0.8960 0.3504 -0.2729
vt 0.541584 0.045024
vt 0.571987 0.034594
vt 0.552674 0.020049
vt 0.512999 0.022454
vt 0.518470 0.006238
vt 0.951224 0.650504
vt 0.931780 0.680770
vt 0.960373 0.688968
vt 0.934937 0.691760
vt 0.943461 0.696258
vt 0.564105 0.018583
vt 0.178619 0.032575
vt 0.165151 0.017389
vt 0.166062 0.035228
vt 0.174273 0.014591
vt 0.191252 0.000000
vt 0.192961 0.045880
vt 0.157175 0.090220
vt 0.192961 0.115435
vt 0.462505 0.201682
vt 0.489134 0.164135
vt 0.403439 0.162069
vt 0.410919 0.123800
vt 0.489134 0.083884
vt 0.922001 0.225640
vt 0.929151 0.237392
vt 0.945534 0.217514
vt 0.945534 0.243140
vt 0.468380 0.064331
vt 0.430990 0.083022
vt 0.168990 0.115637
vt 0.921897 0.225063
vt 0.923693 0.253401
vt 0.940328 0.273742
vt 0.401711 0.006328
vt 0.379926 0.001539
vt 0.372513 0.011727
vt 0.369682 0.035984
vt 0.401711 0.048437
vt 0.543375 0.123832
vt 0.571540 0.126729
vt 0.543994 0.113701
vt 0.557785 0.101842
vt 0.534900 0.089930
vt 0.558443 0.097987
vt 0.566847 0.099915
vt 0.571987 0.126304
vt 0.546355 0.074846
vt 0.396652 0.060819
vt 0.504296 0.066305
vt 0.399822 0.087089
vt 0.397560 0.085772
vt 0.499817 0.041544
vt 0.381765 0.104359
vt 0.563534 0.135295
vt 0.393633 0.125976
vt 0.420771 0.202474
vt 0.384144 0.120236
vt 0.960373 0.650239
s 0
usemtl DefaultMaterial
f 2/1/1 7/2/1 1/3/1
f 1/3/2 3/4/2 2/1/2
f 1/3/3 4/5/3 3/4/3
f 4/6/4 1/7/4 6/8/4
f 1/7/5 8/9/5 5/10/5
f 5/10/6 6/8/6 1/7/6
f 7/2/7 8/11/7 1/3/7
f 9/12/8 8/13/8 7/14/8
f 9/12/8 5/15/8 8/13/8
f 9/12/9 6/16/9 5/15/9
f 9/12/9 10/17/9 6/16/9
f 10/17/10 9/12/10 7/14/10
f 7/14/11 11/18/11 10/17/11
f 14/19/12 10/17/12 11/18/12
f 6/20/13 10/21/13 12/22/13
f 13/23/14 12/22/14 10/21/14
f 10/21/13 14/24/13 13/23/13
f 18/25/15 15/26/15 14/27/15
f 15/26/15 16/28/15 14/27/15
f 14/24/13 16/29/13 19/30/13
f 17/31/16 14/19/16 11/18/16
f 17/32/17 18/25/17 14/27/17
f 13/23/13 14/24/13 19/30/13
f 16/28/18 20/33/18 19/34/18
f 19/35/19 20/36/19 22/37/19
f 19/35/19 21/38/19 13/39/19
s 1
f 22/37/19 21/38/19 19/35/19
s 0
f 20/40/20 18/41/20 22/42/20
f 18/41/21 23/43/21 22/42/21
f 21/44/22 22/42/22 23/43/22
f 21/44/23 23/43/23 24/45/23
f 11/46/24 24/45/24 23/43/24
f 23/43/25 17/47/25 11/46/25
f 23/43/26 18/41/26 17/47/26
f 24/45/27 25/48/27 21/44/27
f 25/48/28 24/45/28 11/46/28
f 21/44/29 25/48/29 2/1/29
f 2/1/30 25/48/30 7/2/30
f 11/46/31 7/2/31 25/48/31
f 21/38/19 26/49/19 13/39/19
f 26/50/32 21/44/32 2/1/32
f 12/51/33 13/39/33 26/49/33
s 1
f 12/51/34 26/49/34 27/52/34
s 0
f 3/4/35 27/53/35 26/50/35
f 2/1/36 3/4/36 26/50/36
f 12/51/37 27/52/37 3/54/37
f 15/55/20 18/41/20 20/40/20
f 16/28/38 15/26/38 20/33/38
f 3/54/39 28/56/39 12/51/39
f 12/22/13 28/57/13 6/20/13
f 3/54/39 4/58/39 28/56/39
f 28/59/40 4/6/40 6/8/40
