# Blender 5.1.2
# www.blender.org
mtllib rock1.mtl
o defaultMaterial.008
v 0.790042 0.295086 0.230998
v 0.685953 0.274776 0.065121
v 0.841051 0.315051 0.173135
v 0.654208 0.258061 0.160746
v 0.855926 0.221402 0.310564
v 0.698819 -0.133357 0.272701
v 0.838238 0.151392 0.333776
v 0.751228 -0.189541 0.263740
v 0.845388 -0.143728 0.307070
v 0.850068 0.171071 0.331727
v 0.967258 -0.140384 0.224402
v 0.962842 0.244578 0.218247
v 0.999088 0.147718 0.221325
v 1.000000 0.151768 0.219273
v 0.926136 0.191410 0.061454
v 0.927409 0.287678 0.170068
v 0.920851 0.201466 0.058232
v 0.792881 -0.204942 -0.002998
v 0.915857 -0.204942 0.135081
v 0.732424 -0.204942 0.240477
v 0.705101 -0.204942 -0.049875
v 0.597309 -0.204942 0.153561
v 0.589935 -0.134843 0.202392
v 0.563763 0.146308 0.157206
v 0.538154 0.138851 0.042860
v 0.559237 -0.204942 -0.004638
v 0.533875 0.107581 -0.009735
v 0.541836 0.123768 -0.014530
v 0.598483 0.150526 -0.035882
v 0.688204 0.155340 -0.064279
v 0.673140 0.218998 -0.010380
v 0.560468 0.185605 0.064125
v 0.550012 0.167489 0.046779
v 0.579750 0.194582 0.143674
v 0.650561 0.262353 0.085400
v 0.704795 0.173797 -0.056142
vn -0.2952 0.9530 0.0686
vn 0.2747 0.8082 0.5210
vn -0.4911 0.1874 0.8507
vn -0.5046 0.3839 0.7733
vn -0.7299 0.2185 0.6477
vn -0.3787 -0.0925 0.9209
vn -0.0379 -0.1918 0.9807
vn 0.2962 -0.0790 0.9519
vn -0.5047 0.3839 0.7733
vn 0.5886 -0.0564 0.8064
vn 0.5612 -0.0729 0.8244
vn 0.6014 0.2492 0.7591
vn 0.9689 -0.1047 0.2240
vn 0.8795 0.3485 -0.3241
vn 0.8898 -0.1075 -0.4435
vn 0.8759 0.3559 -0.3257
vn 0.8759 0.3560 -0.3258
vn 0.4888 -0.0225 -0.8721
vn 0.7055 -0.1712 -0.6877
vn 0.7393 -0.1415 -0.6584
vn 0.8944 -0.1320 -0.4274
vn 0.8928 -0.1046 -0.4382
vn -0.0000 -1.0000 -0.0000
vn 0.2303 -0.8867 0.4009
vn 0.2389 -0.8798 0.4110
vn 0.3150 -0.8460 0.4302
vn -0.4494 -0.5335 0.7165
vn -0.4572 -0.5346 0.7108
vn -0.4508 -0.5417 0.7095
vn -0.9954 -0.0949 -0.0141
vn -0.9701 -0.0950 0.2235
vn -0.9682 -0.0916 0.2330
vn -0.9888 -0.0782 0.1269
vn -0.4384 -0.0502 -0.8974
vn -0.3332 -0.0460 -0.9417
vn -0.2958 -0.0512 -0.9539
vn -0.2988 -0.0521 -0.9529
vn -0.2734 0.5831 -0.7650
vn -0.5145 0.7291 -0.4513
vn -0.9037 0.3964 -0.1622
vn -0.9170 0.3548 0.1823
vn -0.9170 0.3548 0.1822
vn -0.6568 0.7504 0.0745
vn 0.2670 0.1771 0.9473
vn -0.3440 0.1544 0.9262
vn 0.2214 0.7660 -0.6035
vn 0.4531 -0.0144 -0.8913
vn 0.4693 -0.0147 -0.8829
vn 0.4710 -0.0142 -0.8820
vn -0.9036 0.3964 -0.1622
vn -0.5358 0.1752 0.8260
vt 0.396586 0.280332
vt 0.393683 0.204255
vt 0.358604 0.278693
vt 0.364544 0.187823
vt 0.403439 0.163992
vt 0.194337 0.243855
vt 0.194337 0.167528
vt 0.123097 0.190398
vt 0.157875 0.279752
vt 0.131938 0.269013
vt 0.100467 0.211406
vt 0.108130 0.265057
vt 0.138485 0.275863
vt 0.108462 0.316050
vt 0.129719 0.335432
vt 0.166962 0.323697
vt 0.131279 0.335924
vt 0.882608 0.456697
vt 0.881457 0.457891
vt 0.873173 0.478020
vt 0.890457 0.420899
vt 0.940115 0.451534
vt 0.910495 0.407301
vt 0.942031 0.447848
vt 0.231880 0.643207
vt 0.235482 0.645765
vt 0.301577 0.580654
vt 0.897110 0.505501
vt 0.942031 0.509131
vt 0.000000 0.215858
vt 0.016346 0.296097
vt 0.094433 0.229592
vt 0.097797 0.242441
vt 0.090247 0.293853
vt 0.034240 0.335924
vt 0.097797 0.198725
vt 0.005342 0.167412
vt 0.097797 0.152500
vt 0.112355 0.123387
vt 0.134314 0.129561
vt 0.304238 0.105611
vt 0.328825 0.125976
vt 0.352188 0.111120
vt 0.354101 0.068577
vt 0.310794 0.047090
vt 0.054741 0.107939
vt 0.344417 0.048095
vt 0.303362 0.460685
vt 0.271130 0.447862
vt 0.265199 0.452186
vt 0.255395 0.482358
vt 0.303362 0.537923
vt 0.253628 0.529894
vt 0.228899 0.519390
vt 0.333368 0.297859
vt 0.337203 0.339487
vt 0.380293 0.341587
vt 0.354932 0.364194
vt 0.375816 0.349745
vt 0.350179 0.046761
vt 0.364006 0.070839
vt 0.369682 0.077774
vt 0.369682 0.107478
vt 0.403439 0.320449
vt 0.372207 0.292957
vt 0.177155 0.125159
vt 0.159682 0.115637
vt 0.246482 0.537996
vt 0.309378 0.291187
vt 0.304238 0.170921
vt 0.344358 0.148294
vt 0.351260 0.125976
s 0
usemtl DefaultMaterial
f 4/1/1 1/2/1 2/3/1
f 1/2/1 3/4/1 2/3/1
f 3/4/2 1/2/2 5/5/2
f 1/6/3 4/7/3 6/8/3
f 5/9/4 1/6/4 7/10/4
f 6/8/5 7/10/5 1/6/5
f 8/11/6 9/12/6 7/10/6
f 8/11/7 7/10/7 6/8/7
f 10/13/8 7/10/8 9/12/8
f 5/9/9 7/10/9 10/13/9
f 11/14/10 13/15/10 10/13/10
f 10/13/11 9/12/11 11/14/11
f 12/16/12 5/9/12 10/13/12
f 12/16/12 10/13/12 13/15/12
f 13/15/12 14/17/12 12/16/12
f 14/18/13 13/19/13 11/20/13
f 12/21/14 14/18/14 15/22/14
f 15/22/15 14/18/15 11/20/15
f 15/22/16 16/23/16 12/21/16
f 15/22/17 17/24/17 16/23/17
f 17/25/18 15/26/18 18/27/18
s 1
f 19/28/19 18/29/20 15/22/21
f 11/20/22 19/28/19 15/22/21
s 0
f 18/30/23 19/31/23 20/32/23
s 1
f 8/33/24 20/32/24 19/31/24
s 0
f 9/34/25 8/33/25 19/31/25
f 11/35/26 9/34/26 19/31/26
f 20/36/27 8/11/27 6/8/27
f 21/37/23 18/30/23 20/32/23
f 20/32/23 22/38/23 21/37/23
f 22/39/28 20/36/28 6/8/28
f 6/8/29 23/40/29 22/39/29
f 22/41/30 23/42/30 24/43/30
f 24/43/31 25/44/31 22/41/31
f 26/45/32 22/41/32 25/44/32
f 22/38/23 26/46/23 21/37/23
f 27/47/33 26/45/33 25/44/33
f 26/48/34 27/49/34 28/50/34
f 28/50/35 29/51/35 26/48/35
f 26/48/36 29/51/36 21/52/36
f 29/51/37 30/53/37 21/52/37
f 30/53/38 29/51/38 31/54/38
f 31/55/39 29/56/39 32/57/39
f 29/56/39 28/58/39 33/59/39
f 32/57/39 29/56/39 33/59/39
f 28/60/40 25/44/40 33/61/40
f 32/62/41 33/61/41 25/44/41
f 34/63/42 32/62/42 24/43/42
f 24/43/42 32/62/42 25/44/42
f 34/64/43 35/65/43 32/57/43
f 32/57/39 35/65/39 31/55/39
f 34/64/43 4/1/43 35/65/43
f 35/65/39 2/3/39 31/55/39
f 2/3/1 35/65/1 4/1/1
f 34/66/44 24/67/44 23/40/44
f 4/7/45 34/66/45 23/40/45
f 30/53/38 31/54/38 36/68/38
f 31/55/46 2/3/46 36/69/46
f 21/52/47 30/53/47 36/68/47
f 36/68/48 17/25/48 18/27/48
f 17/70/46 36/69/46 2/3/46
f 18/27/49 21/52/49 36/68/49
f 28/60/50 27/47/50 25/44/50
f 23/40/51 6/8/51 4/7/51
f 2/3/46 3/4/46 17/70/46
s 1
f 3/4/46 16/71/46 17/70/46
s 0
f 12/72/2 16/71/2 5/5/2
f 16/71/2 3/4/2 5/5/2
