# Blender 5.1.2
# www.blender.org
mtllib rock3.mtl
o defaultMaterial.006
v 0.245067 0.177977 -0.521271
v 0.260634 0.129473 -0.496591
v 0.236083 0.133793 -0.486606
v 0.266809 0.239929 -0.690189
v 0.335796 -0.194059 -0.589425
v 0.142223 0.207021 -0.514588
v 0.198394 0.119627 -0.466060
v 0.271928 0.105039 -0.495553
v 0.224460 0.252419 -0.569988
v 0.244985 0.268444 -0.662869
v 0.152883 0.252289 -0.550498
v 0.202200 0.285009 -0.742085
v 0.144270 0.252950 -0.551850
v -0.102141 0.207123 -0.545941
v -0.045704 0.274343 -0.618803
v 0.023828 0.299296 -0.773289
v -0.073086 0.167510 -0.502676
v -0.128195 -0.201070 -0.507406
v -0.066121 0.129198 -0.482138
v 0.068687 -0.172440 -0.435767
v -0.164623 -0.178323 -0.552153
v -0.123989 -0.210025 -0.506141
v -0.177871 -0.209078 -0.592490
v -0.182028 -0.207426 -0.736243
v -0.177589 -0.206561 -0.811010
v -0.179342 -0.194436 -0.806399
v -0.078922 0.280936 -0.706164
v -0.117209 0.193078 -0.834635
v -0.083230 0.261564 -0.610592
v -0.051365 -0.204923 -0.943524
v 0.085681 0.166348 -0.945762
v -0.034197 0.160595 -0.929438
v 0.114444 -0.204507 -0.966985
v 0.046798 -0.210582 -0.444701
v 0.183271 -0.210494 -0.441932
v 0.166699 -0.204567 -0.957733
v 0.210202 0.155173 -0.925698
v 0.205406 -0.169407 -0.944547
v 0.316309 -0.206033 -0.819018
v 0.317571 -0.197517 -0.823295
v 0.334773 0.107344 -0.793277
v 0.340815 0.122397 -0.750156
v 0.332876 -0.208631 -0.592221
v 0.235554 0.171301 -0.895259
v 0.208550 0.275635 -0.753670
v 0.186042 -0.193859 -0.438172
v 0.161825 -0.169772 -0.433296
v -0.028989 0.259150 -0.846078
v 0.004166 0.193094 -0.931070
v -0.095387 0.246845 -0.804240
v -0.047304 0.291231 -0.710589
vn 0.8712 0.4139 0.2639
vn 0.3992 0.5143 0.7590
vn 0.2138 0.5757 0.7892
vn 0.9603 0.1982 0.1963
vn 0.9383 0.2687 -0.2178
vn 0.2139 0.5757 0.7892
vn 0.0472 0.9825 0.1800
vn 0.0472 0.9825 0.1799
vn -0.0730 0.6303 0.7729
vn -0.0729 0.6303 0.7729
vn -0.1121 0.6943 0.7109
vn -0.1297 0.7768 0.6162
vn -0.7451 0.1030 0.6589
vn -0.8499 0.1205 0.5130
vn 0.7480 0.4140 0.5187
vn 0.0175 0.2001 0.9796
vn -0.7726 0.1152 0.6243
vn -0.8084 -0.3089 0.5011
vn -0.9321 0.3607 0.0311
vn -0.9850 0.1586 0.0681
vn 0.0009 -0.9999 -0.0115
vn -0.9909 -0.1204 -0.0602
vn -0.9874 0.1577 -0.0086
vn -0.9784 0.2067 -0.0022
vn -0.9684 0.1949 0.1553
vn -0.9693 0.2286 -0.0910
vn -0.1401 0.0457 -0.9891
vn -0.1369 0.0446 -0.9896
vn -0.7406 0.0606 -0.6692
vn -0.7269 0.0667 -0.6835
vn -0.7163 0.1552 -0.6804
vn -0.3552 -0.0151 0.9347
vn -0.3385 -0.0088 0.9409
vn -0.0197 -0.2173 0.9759
vn 0.1646 0.0677 -0.9840
vn 0.2798 0.0515 -0.9587
vn 0.6131 -0.4253 -0.6658
vn 0.1740 0.0697 -0.9823
vn 0.6131 -0.4252 -0.6658
vn 0.9861 -0.0705 0.1506
vn 0.9573 0.1728 -0.2319
vn 0.9536 -0.0824 -0.2896
vn 0.9913 -0.0484 -0.1220
vn 0.9956 -0.0589 -0.0734
vn 0.2748 -0.2340 0.9326
vn 0.7070 -0.0792 0.7028
vn 0.9570 -0.1433 -0.2523
vn 0.8177 0.2503 0.5184
vn 0.7218 0.6157 -0.3161
vn 0.7249 0.0269 -0.6884
vn 0.7374 0.0323 -0.6747
vn 0.7612 0.0264 -0.6480
vn 0.1636 0.8088 -0.5648
vn 0.6678 0.7137 -0.2114
vn 0.9377 -0.2174 0.2709
vn -0.0196 -0.2173 0.9759
vn -0.0319 0.2092 0.9774
vn -0.4920 0.1591 0.8559
vn 0.2679 0.0749 0.9605
vn 0.3828 0.0669 0.9214
vn -0.5108 0.5708 -0.6429
vn -0.5108 0.5707 -0.6429
vn -0.1395 0.1152 -0.9835
vn -0.3316 0.9070 -0.2596
vn -0.3317 0.9070 -0.2596
vn -0.2820 0.9427 0.1784
vn -0.3143 -0.0135 0.9492
vn 0.4007 0.2230 0.8887
vn 0.4007 0.2229 0.8887
vt 0.889365 0.818944
vt 0.899046 0.819079
vt 0.870777 0.809938
vt 0.804400 0.422989
vt 0.822760 0.423536
vt 0.823226 0.412653
vt 0.829953 0.439728
vt 0.842550 0.791926
vt 0.850849 0.745344
vt 0.931284 0.781992
vt 0.774809 0.438513
vt 0.796415 0.472668
vt 0.838760 0.756212
vt 0.624774 0.541948
vt 0.635733 0.578131
vt 0.669842 0.585643
vt 0.777550 0.471437
vt 0.695527 0.561033
vt 0.624767 0.537472
vt 0.777419 0.475831
vt 0.816278 0.577395
vt 0.799929 0.596599
vt 0.769899 0.577093
vt 0.637785 0.437542
vt 0.696518 0.468245
vt 0.859814 0.628841
vt 0.869916 0.605754
vt 0.831326 0.571731
vt 0.859254 0.500303
vt 0.718757 0.039311
vt 0.715285 0.039883
vt 0.705838 0.056769
vt 0.717089 0.071407
vt 0.717999 0.124995
vt 0.649100 0.056506
vt 0.383558 0.364194
vt 0.355997 0.367615
vt 0.309550 0.435005
vt 0.718757 0.152878
vt 0.714153 0.151303
vt 0.657043 0.163903
vt 0.630597 0.081291
vt 0.624767 0.117151
vt 0.469835 0.390820
vt 0.436807 0.364194
vt 0.790890 0.283932
vt 0.844923 0.301127
vt 0.847734 0.214786
vt 0.794952 0.221591
vt 0.782369 0.173817
vt 0.843179 0.141959
vt 0.847734 0.143206
vt 0.304238 0.521273
vt 0.496023 0.478395
vt 0.873173 0.512308
vt 0.873173 0.603578
vt 0.870308 0.444830
vt 0.499817 0.549069
vt 0.308720 0.548212
vt 0.792163 0.346951
vt 0.843727 0.327489
vt 0.829679 0.346368
vt 0.838207 0.397233
vt 0.363057 0.623655
vt 0.835133 0.398022
vt 0.936482 0.698024
vt 0.933468 0.696258
vt 0.904750 0.705415
vt 0.899217 0.720890
vt 0.447270 0.628841
vt 0.936482 0.781303
vt 0.926475 0.844759
vt 0.682516 0.595306
vt 0.714700 0.628841
vt 0.730908 0.623840
vt 0.759299 0.570283
vt 0.785014 0.358265
vt 0.804411 0.404584
vt 0.700598 0.563690
vt 0.769899 0.555771
vt 0.769899 0.491082
vt 0.920501 0.845785
vt 0.856378 0.454171
vt 0.864378 0.442944
vt 0.831978 0.407089
vt 0.756503 0.219100
vt 0.782235 0.241077
vt 0.758707 0.450154
vt 0.722373 0.437532
vt 0.761373 0.182976
vt 0.704201 0.404584
vt 0.670256 0.433707
vt 0.667492 0.417360
vt 0.637791 0.153262
vt 0.775871 0.594651
vt 0.633456 0.418237
s 0
usemtl DefaultMaterial
f 2/1/1 8/2/1 1/3/1
f 1/4/2 3/5/2 2/6/2
f 7/7/3 3/5/3 1/4/3
f 9/8/1 1/3/1 4/9/1
f 4/9/4 1/3/4 5/10/4
f 8/2/5 5/10/5 1/3/5
f 1/4/6 9/11/6 6/12/6
f 6/12/6 7/7/6 1/4/6
f 4/9/1 10/13/1 9/8/1
f 11/14/7 9/15/7 10/16/7
f 9/11/3 11/17/3 6/12/3
f 10/16/7 12/18/7 11/14/7
f 13/19/8 11/14/8 12/18/8
f 6/12/9 11/17/9 13/20/9
f 17/21/10 6/12/10 13/20/10
f 13/20/11 14/22/11 17/21/11
f 14/22/12 13/20/12 15/23/12
f 15/24/7 13/19/7 16/25/7
f 16/25/7 13/19/7 12/18/7
f 21/26/13 18/27/13 17/21/13
f 18/27/14 19/28/14 17/21/14
f 17/21/15 19/28/15 20/29/15
f 6/12/16 17/21/16 20/29/16
f 17/21/17 14/22/17 21/26/17
f 22/30/18 18/31/18 21/32/18
f 22/30/18 21/32/18 23/33/18
f 23/33/19 21/32/19 24/34/19
f 21/32/20 14/35/20 24/34/20
f 24/36/21 25/37/21 30/38/21
f 25/39/22 24/34/22 26/40/22
f 28/41/23 26/40/23 24/34/23
f 29/42/24 27/43/24 24/34/24
f 27/43/25 28/41/25 24/34/25
f 22/44/21 23/45/21 24/36/21
f 14/35/26 29/42/26 24/34/26
f 30/38/21 22/44/21 24/36/21
f 31/46/27 33/47/27 30/48/27
f 32/49/28 31/46/28 30/48/28
f 28/50/29 32/49/29 30/48/29
f 26/51/30 28/50/30 30/48/30
f 30/48/31 25/52/31 26/51/31
f 30/38/21 33/53/21 34/54/21
f 34/54/21 22/44/21 30/38/21
f 34/55/32 20/29/32 19/28/32
f 19/28/33 22/56/33 34/55/33
f 20/29/34 34/55/34 35/57/34
f 35/58/21 34/54/21 36/59/21
f 33/53/21 36/59/21 34/54/21
f 31/46/35 37/60/35 36/61/35
f 37/60/36 38/62/36 36/61/36
f 39/63/37 36/61/37 38/62/37
f 36/61/38 33/47/38 31/46/38
f 36/59/21 39/64/21 35/58/21
f 39/63/39 38/62/39 40/65/39
s 1
f 39/66/40 40/67/41 41/68/42
s 0
f 41/68/43 42/69/43 39/66/43
f 39/64/21 43/70/21 35/58/21
f 39/66/44 42/69/44 43/71/44
f 43/71/45 5/10/45 8/2/45
f 8/2/46 35/72/46 43/71/46
f 42/69/47 5/10/47 43/71/47
f 5/10/48 42/69/48 4/9/48
f 4/73/49 42/74/49 41/75/49
f 41/75/49 44/76/49 4/73/49
s 1
f 44/77/50 41/78/42 40/65/41
s 0
f 40/65/51 38/62/51 44/77/51
f 38/62/52 37/60/52 44/77/52
f 45/79/53 44/76/53 37/80/53
f 44/76/49 45/79/49 4/73/49
f 45/79/54 12/18/54 10/16/54
f 45/79/54 10/16/54 4/73/54
f 45/79/53 31/81/53 16/25/53
s 1
f 16/25/53 12/18/53 45/79/53
s 0
f 37/80/53 31/81/53 45/79/53
f 8/2/55 46/82/55 35/72/55
f 47/83/34 20/29/34 35/57/34
f 35/57/56 46/84/56 47/83/56
f 20/29/57 47/83/57 6/12/57
f 47/83/58 7/7/58 6/12/58
f 7/7/59 47/83/59 46/84/59
f 46/84/60 8/85/60 7/7/60
f 28/50/61 48/86/61 32/49/61
f 48/86/62 49/87/62 32/49/62
f 49/87/63 31/46/63 32/49/63
f 49/88/53 48/89/53 16/25/53
f 31/81/53 49/88/53 16/25/53
f 50/90/62 48/86/62 28/50/62
s 1
f 48/89/64 50/91/65 51/92/64
f 16/25/64 48/89/64 51/92/64
s 0
f 50/91/65 27/93/65 51/92/65
s 1
f 15/24/66 51/92/66 27/93/66
s 0
f 16/25/7 51/92/7 15/24/7
s 1
f 27/43/19 50/94/19 28/41/19
s 0
f 14/22/12 15/23/12 29/95/12
f 15/24/66 27/93/66 29/96/66
f 19/28/67 18/27/67 22/56/67
f 3/5/68 7/7/68 8/85/68
f 8/85/69 2/6/69 3/5/69
