# Blender 5.1.2
# www.blender.org
mtllib rock5.mtl
o defaultMaterial.001
v -0.755579 -0.176372 0.220181
v -0.783775 0.096534 0.294894
v -0.792333 0.131867 0.238878
v -0.766331 -0.168656 0.289578
v -0.754186 -0.207439 0.211042
v -0.777169 0.108535 0.188455
v -0.794882 -0.208050 0.104150
v -0.800451 0.104518 0.125791
v -0.872280 0.147765 0.128095
v -0.802927 -0.188581 0.091080
v -0.829942 -0.207827 0.074313
v -0.922025 -0.140368 0.083234
v -0.905435 -0.206809 0.054670
v -0.881343 -0.203936 0.326355
v -0.804684 0.101480 0.316282
v -0.779455 -0.205745 0.316782
v -0.884448 -0.141685 0.324477
v -0.961082 -0.205398 0.095012
v -1.000000 -0.202855 0.252485
v -0.964183 0.128770 0.274878
v -0.936126 0.161780 0.265905
v -0.969207 0.152368 0.237142
v -0.998906 -0.138878 0.253222
v -0.983889 0.119519 0.262601
v -0.979644 0.128426 0.178833
v -0.930707 0.181153 0.216544
v -0.962119 0.129924 0.123509
v -0.966576 0.126587 0.125877
v -0.932123 0.123761 0.100410
v -0.927612 0.125447 0.102246
v -0.894537 0.184326 0.210239
v -0.856763 0.151507 0.296226
v -0.849602 0.169285 0.251040
v -0.834595 0.123224 0.318352
v -0.946941 0.172327 0.238339
v -0.768765 -0.206064 0.305090
vn 0.9873 0.0620 0.1461
vn 0.9897 0.1225 -0.0739
vn 0.9647 0.1002 0.2437
vn 0.9882 -0.0008 0.1532
vn 0.9949 0.0669 -0.0759
vn 0.9357 0.0409 -0.3503
vn 0.9336 0.0425 -0.3557
vn 0.4954 0.8355 -0.2376
vn 0.0626 0.1565 -0.9857
vn 0.8811 0.0483 -0.4704
vn 0.4725 0.0997 -0.8757
vn 0.6287 -0.2374 -0.7405
vn -0.0166 -0.9998 0.0120
vn 0.0151 0.1513 -0.9884
vn 0.2325 0.4326 -0.8711
vn 0.0093 0.0306 0.9995
vn 0.0937 0.0093 0.9956
vn -0.5303 -0.0009 0.8478
vn -0.5285 -0.0002 0.8489
vn 0.0754 0.2013 0.9766
vn -0.5996 0.6402 0.4802
vn -0.5997 0.6402 0.4802
vn -0.5245 -0.0008 0.8514
vn -0.5288 -0.0001 0.8488
vn -0.8997 0.0679 -0.4312
vn -0.9823 0.0189 -0.1863
vn -0.9854 0.1078 0.1321
vn -0.6503 0.7366 -0.1861
vn -0.6503 0.7366 -0.1860
vn -0.6503 0.7365 -0.1861
vn -0.9707 0.0063 -0.2400
vn -0.9708 0.0062 -0.2398
vn -0.4047 0.0780 -0.9111
vn -0.5926 0.0297 -0.8050
vn -0.5719 0.1991 -0.7958
vn 0.3520 0.0741 -0.9330
vn -0.1538 0.8866 -0.4363
vn 0.3975 0.0738 -0.9146
vn -0.0183 0.9314 0.3635
vn 0.5612 0.7360 0.3785
vn 0.5613 0.7360 0.3785
vn 0.0754 0.0089 0.9971
vn -0.6101 0.1329 0.7811
vn -0.3404 0.1220 0.9323
vn -0.5719 0.1993 -0.7958
vn 0.7207 0.0603 0.6906
vn -0.0167 -0.9998 0.0120
vn 0.8727 0.0477 0.4860
vn 0.7223 0.2243 0.6542
vt 0.031789 0.034167
vt 0.015702 0.036489
vt 0.011587 0.062671
vt 0.044825 0.054973
vt 0.034859 0.074137
vt 0.000000 0.065713
vt 0.034294 0.096120
vt 0.001392 0.103245
vt 0.259998 0.441831
vt 0.280544 0.446983
vt 0.302116 0.432249
vt 0.571987 0.096972
vt 0.589490 0.133112
vt 0.622699 0.118765
vt 0.294485 0.396320
vt 0.008939 0.107939
vt 0.615694 0.132192
vt 0.622699 0.135295
vt 0.873173 0.570901
vt 0.877741 0.591700
vt 0.970116 0.576238
vt 0.595663 0.072379
vt 0.621305 0.080989
vt 0.878966 0.531519
vt 0.229416 0.066606
vt 0.252175 0.064447
vt 0.219206 0.028533
vt 0.248554 0.015539
vt 0.949654 0.625018
vt 0.908362 0.624595
vt 0.212882 0.111996
vt 0.902445 0.509131
vt 0.964156 0.509131
vt 0.252175 0.131561
vt 0.199284 0.099506
vt 0.202397 0.119129
vt 0.216331 0.123082
vt 0.228771 0.131356
vt 0.862354 0.636035
vt 0.850665 0.632061
vt 0.838760 0.641079
vt 0.885891 0.637357
vt 0.846171 0.663140
vt 0.270360 0.342830
vt 0.248507 0.351198
vt 0.256864 0.370746
vt 0.291509 0.349522
vt 0.290548 0.347257
vt 0.885891 0.696258
vt 0.846533 0.682964
vt 0.618564 0.050459
vt 0.577938 0.048245
vt 0.580369 0.067132
vt 0.576861 0.050716
vt 0.579790 0.069392
vt 0.302116 0.363838
vt 0.301639 0.366273
vt 0.261243 0.389154
vt 0.249999 0.413688
vt 0.239596 0.369645
vt 0.234058 0.411548
vt 0.228899 0.423288
vt 0.232681 0.438122
vt 0.212469 0.043118
vt 0.201747 0.056836
vt 0.248391 0.363133
vt 0.194337 0.108181
vt 0.035103 0.025226
vt 0.003127 0.025226
vt 0.943762 0.628841
vt 0.002238 0.030108
vt 0.242034 0.447862
s 0
usemtl DefaultMaterial
f 2/1/1 4/2/1 1/3/1
f 1/3/2 3/4/2 2/1/2
f 1/3/3 6/5/3 3/4/3
f 4/2/4 5/6/4 1/3/4
f 6/5/5 1/3/5 5/6/5
f 8/7/6 6/5/6 7/8/6
f 7/8/7 6/5/7 5/6/7
f 3/9/8 6/10/8 8/11/8
f 9/12/9 8/13/9 11/14/9
f 9/15/8 3/9/8 8/11/8
f 7/8/10 10/16/10 8/7/10
f 8/13/11 10/17/11 11/14/11
f 10/17/12 7/18/12 11/14/12
f 11/19/13 7/20/13 14/21/13
f 9/12/14 11/14/14 12/22/14
f 11/14/15 13/23/15 12/22/15
f 13/24/13 11/19/13 14/21/13
f 17/25/16 14/26/16 15/27/16
f 14/26/17 16/28/17 15/27/17
f 16/29/13 14/21/13 5/30/13
f 7/20/13 5/30/13 14/21/13
f 14/26/18 17/25/18 20/31/18
f 18/32/13 13/24/13 14/21/13
f 14/21/13 19/33/13 18/32/13
f 19/34/19 14/26/19 20/31/19
f 21/35/20 20/31/20 17/25/20
f 22/36/21 20/31/21 21/35/21
s 1
f 22/36/22 24/37/22 20/31/22
s 0
f 23/38/23 19/34/23 20/31/23
f 20/31/24 24/37/24 23/38/24
f 23/39/25 24/40/25 22/41/25
f 19/42/26 23/39/26 25/43/26
f 23/39/27 22/41/27 25/43/27
f 25/44/28 22/45/28 26/46/28
f 26/46/29 27/47/29 25/44/29
s 1
f 27/47/30 28/48/30 25/44/30
s 0
f 18/49/31 19/42/31 25/43/31
f 25/43/32 28/50/32 18/49/32
f 18/51/33 28/52/33 12/22/33
f 12/22/34 28/52/34 29/53/34
f 28/52/35 27/54/35 29/53/35
f 29/53/36 30/55/36 12/22/36
f 29/56/37 27/47/37 30/57/37
f 26/46/37 31/58/37 30/57/37
f 31/58/37 9/15/37 30/57/37
s 1
f 12/22/38 30/55/38 9/12/38
s 0
f 27/47/37 26/46/37 30/57/37
f 9/15/8 31/58/8 33/59/8
f 21/60/39 32/61/39 31/58/39
f 32/61/39 33/59/39 31/58/39
f 31/58/39 26/46/39 21/60/39
f 33/59/40 32/61/40 34/62/40
f 33/59/8 3/9/8 9/15/8
f 3/9/41 33/59/41 34/62/41
f 34/62/41 15/63/41 3/9/41
f 15/27/42 34/64/42 17/25/42
f 17/25/43 34/64/43 32/65/43
f 17/25/44 32/65/44 21/35/44
f 22/45/28 35/66/28 26/46/28
f 26/46/39 35/66/39 21/60/39
f 21/35/22 35/67/22 22/36/22
f 12/22/45 13/23/45 18/51/45
f 2/1/46 15/68/46 16/69/46
f 5/30/47 36/70/47 16/29/47
f 4/2/48 2/1/48 16/69/48
f 16/69/49 36/71/49 4/2/49
f 4/2/4 36/71/4 5/6/4
f 2/72/41 3/9/41 15/63/41
