# Blender 5.1.2
# www.blender.org
mtllib rock6.mtl
o defaultMaterial.005
v -0.440358 0.155357 0.472704
v -0.440797 0.153239 0.470598
v -0.435070 0.153666 0.469408
v -0.450777 0.193920 0.562523
v -0.467845 0.184581 0.538162
v -0.515864 0.147884 0.654162
v -0.529068 0.145111 0.556503
v -0.503874 0.097581 0.471220
v -0.529379 -0.130466 0.494612
v -0.536887 -0.205164 0.516141
v -0.451413 -0.205364 0.440136
v -0.406536 -0.205835 0.429872
v -0.395643 -0.208955 0.670899
v -0.336917 -0.164185 0.666099
v -0.326800 -0.209245 0.620148
v -0.517756 -0.207444 0.680269
v -0.495882 0.142107 0.677782
v -0.392512 0.162334 0.669711
v -0.363490 0.199148 0.586516
v -0.335241 0.128396 0.665531
v -0.310344 0.177802 0.567406
v -0.332830 0.190459 0.570049
v -0.311863 0.168993 0.522071
v -0.401797 0.148026 0.460501
v -0.362409 -0.145847 0.434597
v -0.337806 -0.164095 0.435293
v -0.371788 -0.184954 0.427133
v -0.291414 -0.132081 0.481325
v -0.333194 -0.180404 0.433410
v -0.291665 -0.207476 0.456147
v -0.300232 0.163213 0.524317
v -0.287799 -0.206325 0.459480
v -0.287993 -0.207788 0.460143
v -0.291689 -0.207690 0.456249
v -0.515478 0.147493 0.655344
v -0.532662 -0.166574 0.681150
v -0.564632 -0.163533 0.647318
v -0.559907 -0.206317 0.634445
v -0.566942 -0.164961 0.644177
v -0.567407 -0.205870 0.606293
v -0.573485 -0.158862 0.624657
v -0.569301 -0.139210 0.612467
v -0.545267 0.131807 0.611997
v -0.541396 0.112612 0.530271
vn -0.5669 0.6370 -0.5224
vn -0.1934 0.7117 -0.6754
vn 0.0517 0.9198 -0.3889
vn 0.0518 0.9198 -0.3889
vn -0.5311 0.8460 0.0478
vn -0.5671 0.6368 -0.5224
vn 0.9913 -0.1171 -0.0605
vn -0.9447 0.0729 -0.3197
vn -0.6641 -0.0384 -0.7467
vn -0.0864 0.0869 -0.9925
vn -0.0133 -0.9998 -0.0123
vn -0.2212 0.0892 -0.9711
vn -0.2090 0.0889 -0.9739
vn 0.0796 0.0025 0.9968
vn 0.4870 -0.5676 0.6638
vn 0.0765 0.0023 0.9971
vn 0.0773 0.0025 0.9970
vn -0.1528 0.9224 0.3548
vn 0.4708 0.7342 0.4891
vn 0.0737 0.0015 0.9973
vn 0.9755 -0.0052 0.2198
vn 0.9702 -0.0083 0.2420
vn 0.4657 0.8657 -0.1838
vn -0.0107 0.0864 -0.9962
vn 0.5357 0.1451 -0.8319
vn -0.2438 0.0869 -0.9659
vn 0.4010 0.5116 -0.7599
vn 0.1410 0.1529 -0.9781
vn -0.2145 0.2325 -0.9486
vn 0.5233 0.1491 -0.8390
vn 0.2574 0.1467 -0.9551
vn 0.5869 0.2547 -0.7686
vn 0.5868 0.2547 -0.7686
vn 0.9699 -0.0065 0.2436
vn 0.9717 -0.0219 0.2353
vn 0.9716 -0.0220 0.2356
vn 0.9716 -0.0220 0.2355
vn -0.0135 -0.9998 -0.0124
vn 0.6664 -0.3793 -0.6420
vn 0.2456 -0.4334 -0.8671
vn 0.6367 -0.3810 -0.6704
vn 0.6662 -0.3792 -0.6422
vn 0.1944 -0.4386 -0.8774
vn 0.1944 -0.4387 -0.8774
vn 0.1941 -0.4386 -0.8775
vn 0.9728 -0.0098 0.2316
vn 0.1411 0.1528 -0.9781
vn -0.1530 0.9223 0.3550
vn 0.0670 0.0029 0.9978
vn -0.7383 0.0953 0.6677
vn -0.7192 0.0959 0.6882
vn -0.7113 -0.2734 0.6476
vn -0.9437 -0.2189 0.2479
vn -0.7114 -0.2734 0.6475
vn -0.8110 0.4231 0.4040
vn -0.8109 0.4233 0.4040
vn -0.9472 0.0028 -0.3206
vn -0.9776 0.0870 0.1917
vn -0.9938 0.0880 -0.0677
vn -0.9476 0.0008 -0.3194
vn -0.8791 0.4530 -0.1480
vn -0.9454 0.0011 -0.3259
vn 0.8326 0.1205 -0.5405
vn -0.8110 0.4230 0.4042
vn -0.8110 0.4229 0.4043
vn -0.8379 0.1187 0.5328
vt 0.804965 0.055262
vt 0.830282 0.069745
vt 0.831176 0.069509
vt 0.831527 0.072494
vt 0.795334 0.063996
vt 0.765047 0.028750
vt 0.801117 0.022822
vt 0.834746 0.036060
vt 0.977442 0.273742
vt 0.950350 0.279031
vt 0.949620 0.293330
vt 0.826650 0.022568
vt 0.979376 0.321483
vt 0.929036 0.326035
vt 0.850406 0.126344
vt 0.937105 0.150942
vt 0.876364 0.080671
vt 0.847734 0.149774
vt 0.979792 0.345058
vt 0.928906 0.329040
vt 0.973525 0.724612
vt 0.936482 0.749389
vt 0.990162 0.753946
vt 0.937514 0.181749
vt 0.920066 0.187534
vt 0.937514 0.087532
vt 0.990162 0.812982
vt 0.944346 0.799809
vt 0.757211 0.092714
vt 0.785311 0.109064
vt 0.760025 0.121969
vt 0.948632 0.722390
vt 0.756503 0.038796
vt 0.140509 0.115499
vt 0.157175 0.097618
vt 0.115573 0.115637
vt 0.097797 0.078213
vt 0.792933 0.136498
vt 0.791499 0.124993
vt 0.810048 0.136033
vt 0.834746 0.089745
vt 0.931203 0.346559
vt 0.957479 0.367778
vt 0.921897 0.389778
vt 0.951210 0.401976
vt 0.964203 0.380300
vt 0.972129 0.363150
vt 0.923976 0.395615
vt 0.970280 0.382688
vt 0.979716 0.402760
vt 0.979206 0.404584
vt 0.129362 0.044710
vt 0.103286 0.061589
vt 0.157175 0.036180
vt 0.156641 0.035933
vt 0.860357 0.208758
vt 0.861889 0.210600
vt 0.979792 0.402741
vt 0.979731 0.404445
vt 0.809424 0.141959
vt 0.764632 0.028933
vt 0.975285 0.819345
vt 0.940961 0.811927
vt 0.972036 0.838918
vt 0.986855 0.838990
vt 0.931780 0.644359
vt 0.916255 0.640512
vt 0.913626 0.647737
vt 0.972359 0.840448
vt 0.919521 0.066555
vt 0.908927 0.063193
vt 0.931154 0.654825
vt 0.968902 0.845785
vt 0.960958 0.844705
vt 0.906493 0.652207
vt 0.943954 0.831922
vt 0.890369 0.652257
vt 0.897228 0.682832
vt 0.931780 0.688549
vt 0.885891 0.672947
vt 0.904425 0.696258
vt 0.812679 0.016247
vt 0.781710 0.013706
vt 0.940744 0.812244
s 0
usemtl DefaultMaterial
f 5/1/1 1/2/1 2/3/1
s 1
f 1/2/2 3/4/2 2/3/2
s 0
f 3/4/3 1/2/3 4/5/3
f 1/2/4 5/1/4 4/5/4
f 6/6/5 4/5/5 5/1/5
f 6/6/5 5/1/5 7/7/5
f 7/7/6 5/1/6 8/8/6
f 2/3/6 8/8/6 5/1/6
f 10/9/7 9/10/7 8/11/7
f 8/8/8 9/12/8 7/7/8
f 10/9/9 8/11/9 11/13/9
f 11/13/10 8/11/10 2/14/10
f 11/15/11 13/16/11 10/17/11
f 11/15/11 12/18/11 13/16/11
f 12/19/12 11/13/12 3/20/12
f 3/20/13 11/13/13 2/14/13
f 14/21/14 18/22/14 13/23/14
f 14/24/15 13/16/15 15/25/15
f 15/25/11 13/16/11 12/18/11
f 13/16/11 16/26/11 10/17/11
f 16/27/16 13/23/16 17/28/16
f 18/22/17 17/28/17 13/23/17
s 1
f 18/29/18 19/30/18 4/5/18
s 0
f 19/30/19 18/29/19 20/31/19
f 20/32/20 18/22/20 14/21/20
f 17/33/18 18/29/18 4/5/18
f 14/34/21 15/35/21 20/36/21
f 21/37/22 20/36/22 15/35/22
f 20/31/19 21/38/19 22/39/19
f 22/39/19 19/30/19 20/31/19
f 21/38/23 23/40/23 22/39/23
f 22/39/4 23/40/4 24/41/4
f 19/30/4 22/39/4 24/41/4
f 24/42/24 25/43/24 12/19/24
f 25/43/25 24/42/25 23/44/25
s 1
f 24/41/4 3/4/4 4/5/4
s 0
f 3/20/26 24/42/26 12/19/26
f 19/30/4 24/41/4 4/5/4
s 1
f 28/45/27 26/46/27 25/43/27
s 0
f 26/46/28 27/47/28 25/43/28
f 25/43/29 27/47/29 12/19/29
f 25/43/30 23/44/30 28/45/30
f 31/48/31 28/45/31 23/44/31
f 29/49/32 26/46/32 28/45/32
f 28/45/33 30/50/33 29/49/33
f 28/45/33 32/51/33 30/50/33
f 28/52/34 31/53/34 15/35/34
f 33/54/35 32/55/36 28/52/35
f 15/35/37 33/54/37 28/52/37
s 1
f 34/56/38 33/57/38 15/25/38
s 0
f 34/58/39 32/51/39 33/59/39
s 1
f 34/58/40 30/50/41 32/51/42
s 0
f 34/58/43 12/19/43 27/47/43
f 27/47/44 29/49/44 34/58/44
s 1
f 30/50/41 34/58/40 29/49/45
s 0
f 12/18/11 34/56/11 15/25/11
f 31/53/46 21/37/46 15/35/46
f 21/38/23 31/60/23 23/40/23
f 26/46/47 29/49/47 27/47/47
f 4/5/18 6/6/18 17/33/18
f 35/61/48 17/33/48 6/6/48
f 17/28/49 36/62/49 16/27/49
f 36/62/50 17/28/50 35/63/50
f 36/62/51 35/63/51 37/64/51
f 36/62/52 37/64/52 38/65/52
f 16/27/52 36/62/52 38/65/52
f 38/66/53 39/67/53 41/68/53
f 37/64/54 39/69/54 38/65/54
f 38/70/11 40/71/11 10/17/11
f 38/66/53 41/68/53 40/72/53
f 16/26/11 38/70/11 10/17/11
f 39/69/55 37/64/55 41/73/55
f 42/74/56 41/73/56 37/64/56
f 40/72/57 41/68/57 42/75/57
f 43/76/58 42/74/58 37/64/58
f 43/77/59 44/78/59 42/75/59
f 42/75/60 44/78/60 10/79/60
f 10/79/57 40/72/57 42/75/57
f 43/77/61 7/80/61 44/78/61
f 9/81/62 10/79/62 44/78/62
f 9/12/63 44/82/63 7/7/63
f 7/7/5 43/83/5 6/6/5
s 1
f 35/63/64 6/84/65 43/76/65
s 0
f 37/64/66 35/63/66 43/76/66
