# Blender 5.1.2
# www.blender.org
mtllib rock.mtl
o defaultMaterial.007
v -0.204133 0.127064 0.211848
v -0.132685 0.627604 0.144948
v -0.069000 0.494778 0.248835
v -0.150181 0.534119 -0.183003
v -0.221198 -0.191413 -0.075245
v -0.161226 -0.159091 0.273973
v -0.220497 -0.207843 0.176757
v -0.223102 -0.209266 -0.019997
v -0.220156 -0.209665 -0.075143
v -0.152419 -0.207070 0.283717
v -0.069808 -0.210810 -0.233474
v -0.052613 0.419715 -0.278280
v 0.120592 -0.211008 -0.260775
v 0.036721 -0.206574 0.352285
v 0.077274 0.211063 0.340641
v 0.206716 0.108549 0.349551
v 0.201391 -0.206552 0.355260
v 0.377133 -0.207827 0.179050
v 0.195416 -0.210913 -0.247632
v 0.359713 -0.209762 -0.088575
v 0.360796 -0.189749 -0.095497
v 0.229131 0.097695 -0.248396
v 0.382104 -0.138343 0.173782
v 0.380079 0.288889 -0.097655
v 0.306503 0.331146 0.248588
v 0.386994 0.343027 -0.054629
v 0.263192 0.466355 -0.244730
v 0.299059 0.714743 -0.038772
v 0.293013 0.406219 0.236222
v 0.246200 0.769026 0.109450
v 0.125431 0.515899 0.281684
v 0.138506 0.483363 0.288205
v 0.168892 0.207198 0.342545
v 0.033536 0.471261 0.289254
v 0.208115 0.779985 0.125646
v 0.062703 0.940840 -0.016645
v 0.151826 0.942804 -0.101900
v 0.266504 0.830874 -0.015288
v 0.206128 0.911991 -0.098944
v -0.111123 0.785405 0.044990
v -0.106285 0.829015 -0.074640
v 0.007397 0.927482 -0.105381
v -0.125203 0.706255 -0.172552
v -0.008033 0.521039 -0.295244
v -0.047572 0.739007 -0.226947
v 0.030325 0.914230 -0.143650
v 0.230445 0.812611 -0.128454
v 0.087720 0.438105 -0.300336
v 0.233674 0.410522 -0.272488
v 0.068818 0.956281 -0.048747
vn -0.9897 0.1429 0.0121
vn -0.7082 0.1919 0.6795
vn -0.5203 0.1060 0.8474
vn -0.9950 0.0912 -0.0420
vn -0.9978 0.0654 -0.0133
vn -0.8507 -0.0135 0.5254
vn -0.9988 0.0475 0.0129
vn -0.0000 -1.0000 0.0072
vn -0.9970 -0.0572 -0.0528
vn -0.7240 -0.0292 -0.6892
vn -0.1417 -0.0663 -0.9877
vn -0.7246 -0.0452 -0.6877
vn -0.3546 0.0604 0.9330
vn -0.0434 0.0320 0.9985
vn -0.0181 0.0184 0.9997
vn -0.3383 0.1272 0.9324
vn 0.7080 0.0008 0.7062
vn 0.9950 -0.0761 -0.0642
vn 0.3229 -0.3249 -0.8889
vn 0.6937 -0.0776 -0.7160
vn 0.9966 -0.0405 -0.0711
vn 0.9943 -0.0538 -0.0921
vn 0.7092 0.0019 0.7050
vn 0.9592 0.1132 0.2591
vn 0.7097 0.0026 0.7045
vn 0.8768 0.2255 -0.4247
vn 0.9425 0.2119 0.2585
vn 0.4497 0.3458 0.8235
vn 0.4077 0.2193 0.8864
vn -0.0180 0.0639 0.9978
vn -0.0123 0.1917 0.9814
vn -0.1969 0.5437 0.8159
vn -0.3383 0.1273 0.9324
vn 0.4200 0.7840 0.4571
vn -0.5929 0.7640 0.2545
vn -0.6063 0.1356 -0.7836
vn -0.6232 0.5441 -0.5618
vn 0.2366 0.3293 -0.9141
vn 0.8879 0.3164 -0.3340
vn 0.2434 -0.0467 -0.9688
vn 0.1726 -0.0781 -0.9819
vn -0.1463 -0.0676 -0.9869
vn -0.1413 -0.1027 -0.9846
vn 0.7435 -0.0621 -0.6658
vn -0.0890 0.9235 -0.3731
vn 0.7265 -0.0324 -0.6864
vn 0.1730 -0.0213 -0.9847
vn -0.3967 0.0911 0.9134
vn -0.7178 -0.0330 -0.6954
vn -0.8426 -0.0457 0.5366
vt 0.624767 0.590716
vt 0.624767 0.406174
vt 0.499817 0.423076
vt 0.544797 0.669204
vt 0.492553 0.814302
vt 0.542342 0.861185
vt 0.513543 0.648107
vt 0.514789 0.609896
vt 0.534191 0.619205
vt 0.551816 0.628841
vt 0.606473 0.628841
vt 0.086003 0.335923
vt 0.065607 0.337829
vt 0.008355 0.416868
vt 0.513898 0.616662
vt 0.158897 0.335924
vt 0.199139 0.370486
vt 0.090913 0.796173
vt 0.085590 0.645765
vt 0.000000 0.652522
vt 0.184111 0.650104
vt 0.000000 0.515774
vt 0.226278 0.468080
vt 0.000784 0.645765
vt 0.406370 0.645715
vt 0.397417 0.720396
vt 0.329210 0.694467
vt 0.326791 0.660683
vt 0.505834 0.631004
vt 0.228899 0.553437
vt 0.065982 0.638571
vt 0.165260 0.645765
vt 0.551816 0.967495
vt 0.559049 1.000000
vt 0.633212 0.988367
vt 0.005558 0.554478
vt 0.726324 0.958474
vt 0.726710 0.950656
vt 0.628037 0.963371
vt 0.297260 0.660725
vt 0.237653 0.684542
vt 0.297884 0.668040
vt 0.221605 0.652407
vt 0.701843 0.861196
vt 0.681447 0.847104
vt 0.570562 0.881651
vt 0.726710 0.776888
vt 0.630411 0.713366
vt 0.566022 0.853089
vt 0.568906 0.708378
vt 0.371164 0.948954
vt 0.395947 0.838481
vt 0.315802 0.815644
vt 0.387314 0.827537
vt 0.352928 0.727298
vt 0.304238 0.788971
vt 0.437106 0.813463
vt 0.387992 0.948807
vt 0.483180 1.000000
vt 0.551816 0.924832
vt 0.892060 0.311995
vt 0.921897 0.232803
vt 0.853326 0.271814
vt 0.847877 0.244672
vt 0.912036 0.214652
vt 0.868391 0.210600
vt 0.595821 0.343926
vt 0.554054 0.321976
vt 0.512097 0.361338
vt 0.864317 0.346102
vt 0.880542 0.404584
vt 0.921897 0.400619
vt 0.044427 0.903161
vt 0.086345 0.916170
vt 0.113089 0.834643
vt 0.034654 0.838266
vt 0.047333 0.951493
vt 0.119342 0.985237
vt 0.105502 0.990416
vt 0.222082 0.953073
vt 0.646854 0.665738
vt 0.607601 0.673431
vt 0.624268 0.632765
vt 0.178780 1.000000
vt 0.206763 0.990042
vt 0.163365 0.806219
vt 0.249628 0.822595
vt 0.236780 0.800436
vt 0.304238 0.762983
vt 0.880723 0.310510
vt 0.847734 0.337124
s 0
usemtl Material
f 1/1/1 2/2/1 4/3/1
f 1/4/2 3/5/2 2/6/2
f 1/4/3 6/7/3 3/5/3
f 4/3/4 5/8/4 1/1/4
f 8/9/5 1/1/5 5/8/5
f 6/7/6 1/4/6 7/10/6
f 7/11/7 1/1/7 8/9/7
f 8/12/8 9/13/8 11/14/8
f 9/15/9 8/9/9 5/8/9
f 7/16/8 8/12/8 10/17/8
f 10/17/8 8/12/8 11/14/8
f 12/18/10 11/19/10 5/20/10
f 13/21/11 11/19/11 12/18/11
f 11/14/8 13/22/8 14/23/8
f 11/19/12 9/24/12 5/20/12
f 10/17/8 11/14/8 14/23/8
f 14/25/13 15/26/13 6/7/13
f 14/25/14 16/27/14 15/26/14
f 17/28/15 16/27/15 14/25/15
f 6/7/16 10/29/16 14/25/16
f 17/30/8 14/23/8 13/22/8
f 20/31/8 18/32/8 17/30/8
f 16/33/17 17/34/17 18/35/17
f 13/22/8 19/36/8 17/30/8
f 19/36/8 20/31/8 17/30/8
f 20/37/18 21/38/18 23/39/18
f 20/40/19 22/41/19 21/42/19
f 20/40/20 19/43/20 22/41/20
f 23/39/18 18/35/18 20/37/18
f 21/38/21 24/44/21 23/39/21
f 24/44/22 26/45/22 23/39/22
f 23/39/23 25/46/23 16/33/23
f 25/46/24 23/39/24 26/45/24
f 18/35/25 23/39/25 16/33/25
f 24/44/26 27/47/26 26/45/26
f 26/45/26 27/47/26 28/48/26
f 26/45/27 28/48/27 29/49/27
f 29/49/27 25/46/27 26/45/27
f 30/50/27 29/49/27 28/48/27
f 30/51/28 31/52/28 29/53/28
f 31/52/28 32/54/28 29/53/28
f 29/53/29 32/54/29 33/55/29
f 25/56/29 29/53/29 33/55/29
f 16/27/30 33/55/30 15/26/30
f 15/26/31 33/55/31 32/54/31
f 33/55/29 16/27/29 25/56/29
f 34/57/31 15/26/31 32/54/31
f 31/52/31 34/57/31 32/54/31
f 34/57/32 31/52/32 2/6/32
f 2/6/32 3/5/32 34/57/32
f 15/26/33 34/57/33 3/5/33
f 35/58/28 31/52/28 30/51/28
f 31/52/32 35/58/32 2/6/32
f 35/58/32 36/59/32 40/60/32
f 36/61/34 35/62/34 37/63/34
f 39/64/34 37/63/34 35/62/34
f 35/62/34 30/65/34 38/66/34
f 38/66/34 39/64/34 35/62/34
f 40/60/32 2/6/32 35/58/32
f 40/67/1 41/68/1 43/69/1
f 42/70/35 41/71/35 40/72/35
f 40/72/35 36/61/35 42/70/35
f 2/2/1 40/67/1 43/69/1
f 43/73/36 45/74/36 44/75/36
f 44/75/36 4/76/36 43/73/36
f 43/69/1 4/3/1 2/2/1
f 45/74/37 43/73/37 41/77/37
f 46/78/37 45/74/37 42/79/37
s 1
f 42/79/37 45/74/37 41/77/37
s 0
f 45/74/38 46/78/38 47/80/38
s 1
f 44/75/38 45/74/38 47/80/38
s 0
f 27/47/26 47/81/26 28/48/26
f 47/81/39 38/82/39 28/48/39
f 47/81/39 39/83/39 38/82/39
f 46/78/38 37/84/38 47/80/38
f 37/84/38 39/85/38 47/80/38
f 48/86/38 44/75/38 47/80/38
s 1
f 47/80/38 27/87/38 48/86/38
s 0
f 13/21/40 48/86/40 22/41/40
f 48/86/41 49/88/41 22/41/41
f 27/87/38 49/88/38 48/86/38
f 48/86/42 13/21/42 12/18/42
f 44/75/43 48/86/43 12/18/43
f 49/88/44 24/89/44 22/41/44
f 27/87/44 24/89/44 49/88/44
f 50/90/45 37/63/45 46/91/45
f 50/90/45 46/91/45 42/70/45
f 36/61/35 50/90/35 42/70/35
f 37/63/34 50/90/34 36/61/34
f 44/75/36 12/18/36 4/76/36
s 1
f 28/48/27 38/82/27 30/50/27
s 0
f 24/89/46 21/42/46 22/41/46
f 19/43/47 13/21/47 22/41/47
f 6/7/48 15/26/48 3/5/48
s 1
f 5/20/49 4/76/49 12/18/49
s 0
f 6/7/50 7/10/50 10/29/50
