# Blender 5.1.2
# www.blender.org
mtllib rock4.mtl
o defaultMaterial
v -0.503091 0.321530 -0.412798
v -0.600858 0.321774 -0.405193
v -0.504855 0.325249 -0.393526
v -0.740899 0.104828 -0.116372
v -0.734450 0.100768 -0.107813
v -0.738019 0.109074 -0.114662
v -0.543334 -0.184796 -0.041078
v -0.537746 0.116549 -0.069047
v -0.582745 -0.156342 -0.045905
v -0.767930 0.236028 -0.334490
v -0.778137 0.219023 -0.328446
v -0.767769 0.237075 -0.325402
v -0.702971 -0.164654 -0.070552
v -0.699471 -0.204940 -0.074063
v -0.709866 0.246662 -0.205904
v -0.679983 0.279500 -0.408327
v -0.678696 0.132177 -0.440646
v -0.519152 -0.179632 -0.046133
v -0.498099 -0.206512 -0.055776
v -0.819719 -0.204263 -0.331161
v -0.811558 -0.161310 -0.228586
v -0.807739 0.148187 -0.315460
v -0.546356 -0.206118 -0.043900
v -0.465698 0.288661 -0.275267
v -0.377342 0.180012 -0.318460
v -0.424881 0.226314 -0.439664
v -0.609447 0.320952 -0.404709
v -0.727920 0.266240 -0.268519
v -0.424673 -0.207458 -0.400272
v -0.748442 -0.204897 -0.398575
v -0.446399 0.159495 -0.452615
v -0.373543 0.171273 -0.368644
v -0.355485 -0.207917 -0.318351
v -0.359926 -0.207793 -0.233926
v -0.532840 0.244726 -0.159473
v -0.816019 -0.204199 -0.244293
vn -0.0124 0.9816 -0.1906
vn -0.7228 0.2275 0.6525
vn -0.0544 0.0933 0.9942
vn -0.8632 0.5030 -0.0427
vn -0.1930 -0.1018 0.9759
vn 0.4421 0.4480 0.7771
vn -0.8044 -0.0265 0.5935
vn -0.6785 0.1518 -0.7188
vn 0.5153 0.0982 0.8514
vn -0.9973 0.0309 0.0664
vn 0.2346 -0.1602 0.9588
vn 0.7641 0.6429 -0.0541
vn -0.0727 0.9457 0.3167
vn -0.0062 -0.1226 -0.9924
vn 0.7584 -0.0785 -0.6470
vn 0.7583 -0.0723 -0.6478
vn 0.7578 -0.0480 -0.6507
vn 0.9970 0.0562 0.0524
vn -0.0753 0.2131 -0.9741
vn -0.0079 -1.0000 0.0011
vn -0.5011 0.8607 -0.0903
vn -0.8313 0.4151 0.3695
vn 0.1859 0.0874 0.9787
vn -0.9646 0.1757 0.1968
vn -0.2397 0.2920 0.9259
vn -0.2027 0.5697 0.7965
vn -0.2070 0.1119 0.9719
vn -0.3098 -0.2984 0.9028
vn -0.8248 -0.0332 0.5645
vn -0.9857 -0.0976 0.1374
vn -0.6858 0.0556 -0.7256
vn -0.6919 0.0533 -0.7200
vn 0.7848 0.1213 0.6078
vn 0.7385 0.1751 0.6511
vn 0.8687 0.2629 0.4198
vn 0.7348 0.3720 0.5672
vn -0.9952 0.0880 0.0423
vn -0.0341 -0.1431 -0.9891
vn 0.7581 -0.1199 -0.6410
vn 0.7629 -0.0492 -0.6446
vn 0.9963 0.0562 0.0656
vn -0.0753 0.2130 -0.9741
vn -0.0752 0.2130 -0.9741
vn -0.0752 0.2131 -0.9741
vn -0.5012 0.8606 -0.0902
vn -0.5011 0.8606 -0.0902
vn -0.9700 0.2394 0.0430
vn -0.8314 0.4151 0.3695
vn -0.8313 0.4152 0.3695
vn -0.8057 0.1693 0.5676
vt 0.280484 0.272347
vt 0.283234 0.221660
vt 0.273357 0.270651
vt 0.530139 0.193565
vt 0.528686 0.197878
vt 0.531798 0.195058
vt 0.515983 0.301079
vt 0.545682 0.298167
vt 0.523973 0.280436
vt 0.496251 0.358807
vt 0.499502 0.364194
vt 0.499502 0.357845
vt 0.514115 0.218984
vt 0.499817 0.221420
vt 0.588118 0.193654
vt 0.757218 0.789454
vt 0.742684 0.838484
vt 0.797956 0.840382
vt 0.794976 0.757678
vt 0.823221 0.762101
vt 0.833764 0.756199
vt 0.080626 0.060590
vt 0.044825 0.080745
vt 0.080626 0.107939
vt 0.508137 0.299871
vt 0.519708 0.312111
vt 0.230181 0.285484
vt 0.247093 0.331908
vt 0.291261 0.312965
vt 0.283591 0.217208
vt 0.243842 0.149921
vt 0.221145 0.156393
vt 0.838760 0.968576
vt 0.838760 0.802123
vt 0.787437 0.960428
vt 0.780800 0.993666
vt 0.830259 0.650905
vt 0.769314 0.658780
vt 0.833764 0.682257
vt 0.727050 0.874658
vt 0.726731 0.879098
vt 0.756503 0.367511
vt 0.756503 0.199634
vt 0.624767 0.263344
vt 0.271840 0.131855
vt 0.268463 0.131561
vt 0.579235 0.146111
vt 0.550826 0.135295
vt 0.596989 0.285789
vt 0.515517 0.146525
vt 0.500311 0.143656
vt 0.837090 0.762101
vt 0.789359 0.767806
vt 0.763391 0.783860
vt 0.744315 0.729271
vt 0.726710 0.684382
vt 0.048668 0.064413
vt 0.511751 0.321976
vt 0.265642 0.335924
vt 0.194337 0.245599
vt 0.762343 0.971010
vt 0.836710 1.000000
vt 0.770462 0.639724
vt 0.726710 0.929720
vt 0.726032 0.163903
vt 0.694776 0.166351
vt 0.629071 0.238302
vt 0.636234 0.342681
vt 0.699501 0.402816
vt 0.731677 0.404584
vt 0.291261 0.180671
vt 0.596989 0.176605
vt 0.586365 0.151025
s 0
usemtl DefaultMaterial
f 1/1/1 2/2/1 3/3/1
f 4/4/2 5/5/2 6/6/2
f 7/7/3 8/8/3 9/9/3
f 10/10/4 11/11/4 12/12/4
f 9/9/5 13/13/5 14/14/5
f 15/15/6 5/5/6 9/9/6
f 5/5/7 4/4/7 14/14/7
f 10/16/8 16/17/8 17/18/8
f 8/19/9 18/20/9 19/21/9
f 20/22/10 21/23/10 22/24/10
f 23/25/11 18/26/11 7/7/11
f 24/27/12 25/28/12 26/29/12
f 27/30/13 28/31/13 15/32/13
f 17/18/14 29/33/14 30/34/14
s 1
f 31/35/15 32/36/16 29/33/17
s 0
f 33/37/18 25/38/18 34/39/18
f 27/40/19 2/41/19 17/18/19
f 30/42/20 29/43/20 23/44/20
f 10/45/21 12/46/21 28/31/21
f 11/47/22 22/48/22 15/15/22
f 7/7/23 18/26/23 8/8/23
f 14/14/5 23/25/5 9/9/5
f 23/25/5 7/7/5 9/9/5
f 8/8/24 35/49/24 9/9/24
f 35/49/25 15/15/25 9/9/25
f 15/15/26 6/6/26 5/5/26
f 5/5/27 13/13/27 9/9/27
f 21/50/28 36/51/28 4/4/28
f 36/51/29 14/14/29 4/4/29
f 14/14/30 13/13/30 5/5/30
f 20/52/31 22/53/31 30/34/31
f 22/53/8 11/54/8 17/18/8
f 30/34/32 22/53/32 17/18/32
f 11/54/8 10/16/8 17/18/8
s 1
f 19/21/33 34/39/33 8/19/33
s 0
f 34/39/34 25/38/34 35/55/34
f 8/19/35 34/39/35 35/55/35
f 25/38/36 24/56/36 35/55/36
f 20/22/37 36/57/37 21/23/37
f 23/25/11 19/58/11 18/26/11
f 25/28/12 32/59/12 26/29/12
f 26/29/12 1/1/12 3/3/12
f 3/3/12 24/27/12 26/29/12
f 15/32/13 35/60/13 27/30/13
f 35/60/13 24/27/13 2/2/13
f 24/27/13 3/3/13 2/2/13
f 2/2/13 27/30/13 35/60/13
f 17/18/38 31/35/38 29/33/38
s 1
f 26/61/39 32/36/16 31/35/15
s 0
f 32/36/40 33/62/40 29/33/40
f 33/37/41 32/63/41 25/38/41
f 26/61/42 31/35/42 1/64/42
f 31/35/43 17/18/43 2/41/43
f 1/64/44 31/35/44 2/41/44
f 17/18/43 16/17/43 27/40/43
f 29/43/20 33/65/20 34/66/20
f 34/66/20 19/67/20 29/43/20
f 19/67/20 23/44/20 29/43/20
f 23/44/20 14/68/20 30/42/20
f 14/68/20 36/69/20 30/42/20
f 36/69/20 20/70/20 30/42/20
f 28/31/45 27/30/45 16/71/45
f 16/71/46 10/45/46 28/31/46
f 21/50/47 4/4/47 15/15/47
f 4/4/48 6/6/48 15/15/48
f 15/15/49 28/72/49 11/47/49
f 21/50/50 15/15/50 22/48/50
f 28/72/49 12/73/49 11/47/49
